<svg xmlns="http://www.w3.org/2000/svg" viewBox="0 0 800 450" role="img" aria-label="Risk AI dashboard thumbnail">
  <defs>
    <linearGradient id="bg07" x1="0" y1="0" x2="1" y2="1">
      <stop offset="0" stop-color="#111827"/>
      <stop offset=".55" stop-color="#172554"/>
      <stop offset="1" stop-color="#312e81"/>
    </linearGradient>
    <linearGradient id="mint07" x1="0" y1="0" x2="1" y2="1">
      <stop offset="0" stop-color="#38bdf8"/>
      <stop offset="1" stop-color="#22c55e"/>
    </linearGradient>
    <linearGradient id="warn07" x1="0" y1="0" x2="1" y2="1">
      <stop offset="0" stop-color="#f59e0b"/>
      <stop offset="1" stop-color="#ef4444"/>
    </linearGradient>
  </defs>
  <rect width="800" height="450" fill="url(#bg07)"/>
  <circle cx="642" cy="64" r="170" fill="#38bdf8" opacity=".09"/>
  <circle cx="126" cy="390" r="180" fill="#22c55e" opacity=".08"/>
  <rect x="56" y="52" width="688" height="346" rx="24" fill="#0f172a" opacity=".78" stroke="#60a5fa" stroke-opacity=".22"/>
  <rect x="86" y="88" width="258" height="270" rx="18" fill="#111c38" stroke="#334155"/>
  <text x="112" y="126" fill="#cbd5e1" font-family="Arial, sans-serif" font-size="22" font-weight="700">Risk Review</text>
  <path d="M215 156l72 26v56c0 48-31 82-72 101-41-19-72-53-72-101v-56z" fill="url(#mint07)" opacity=".92"/>
  <path d="M198 237l25 25 54-72" fill="none" stroke="#ecfeff" stroke-width="13" stroke-linecap="round" stroke-linejoin="round"/>
  <rect x="112" y="316" width="88" height="12" rx="6" fill="#475569"/>
  <rect x="112" y="316" width="66" height="12" rx="6" fill="#22c55e"/>
  <rect x="214" y="316" width="86" height="12" rx="6" fill="#475569"/>
  <rect x="214" y="316" width="38" height="12" rx="6" fill="#f59e0b"/>
  <rect x="374" y="88" width="328" height="124" rx="18" fill="#101a33" stroke="#334155"/>
  <text x="402" y="124" fill="#94a3b8" font-family="Arial, sans-serif" font-size="17">Approval Score</text>
  <text x="402" y="174" fill="#f8fafc" font-family="Arial, sans-serif" font-size="54" font-weight="800">86</text>
  <path d="M566 174c34-54 82-66 114-22" fill="none" stroke="url(#mint07)" stroke-width="12" stroke-linecap="round"/>
  <path d="M566 174c19-29 39-47 62-51" fill="none" stroke="url(#warn07)" stroke-width="12" stroke-linecap="round"/>
  <rect x="374" y="234" width="328" height="124" rx="18" fill="#101a33" stroke="#334155"/>
  <text x="402" y="270" fill="#94a3b8" font-family="Arial, sans-serif" font-size="17">Signals</text>
  <rect x="402" y="310" width="44" height="24" rx="6" fill="#22c55e"/>
  <rect x="462" y="288" width="44" height="46" rx="6" fill="#38bdf8"/>
  <rect x="522" y="302" width="44" height="32" rx="6" fill="#a78bfa"/>
  <rect x="582" y="276" width="44" height="58" rx="6" fill="#f59e0b"/>
  <rect x="642" y="295" width="28" height="39" rx="6" fill="#ef4444"/>
  <text x="86" y="420" fill="#64748b" font-family="Arial, sans-serif" font-size="13" letter-spacing="3">MVP 07 · FINTECH RISK AI</text>
</svg>
