<svg xmlns="http://www.w3.org/2000/svg" viewBox="0 0 800 450" role="img" aria-label="Video AI analysis platform thumbnail">
  <defs>
    <linearGradient id="bg09" x1="0" y1="0" x2="1" y2="1">
      <stop offset="0" stop-color="#020617"/>
      <stop offset=".55" stop-color="#172554"/>
      <stop offset="1" stop-color="#0f766e"/>
    </linearGradient>
    <linearGradient id="scan09" x1="0" y1="0" x2="1" y2="0">
      <stop offset="0" stop-color="#38bdf8"/>
      <stop offset="1" stop-color="#34d399"/>
    </linearGradient>
  </defs>
  <rect width="800" height="450" fill="url(#bg09)"/>
  <rect x="56" y="52" width="688" height="346" rx="24" fill="#020617" opacity=".75" stroke="#22d3ee" stroke-opacity=".24"/>
  <rect x="92" y="88" width="506" height="270" rx="18" fill="#0f172a" stroke="#334155"/>
  <rect x="122" y="118" width="446" height="188" rx="14" fill="#111827"/>
  <path d="M122 255l92-82 78 62 70-96 90 104 116-130v193H122z" fill="#1e3a8a" opacity=".72"/>
  <rect x="188" y="152" width="108" height="78" rx="6" fill="none" stroke="#38bdf8" stroke-width="5"/>
  <rect x="378" y="134" width="128" height="92" rx="6" fill="none" stroke="#34d399" stroke-width="5"/>
  <line x1="122" y1="246" x2="568" y2="246" stroke="url(#scan09)" stroke-width="4" opacity=".85"/>
  <rect x="122" y="326" width="74" height="12" rx="6" fill="#38bdf8"/>
  <rect x="208" y="326" width="128" height="12" rx="6" fill="#475569"/>
  <rect x="348" y="326" width="88" height="12" rx="6" fill="#34d399"/>
  <rect x="630" y="88" width="78" height="270" rx="18" fill="#0f172a" stroke="#334155"/>
  <circle cx="669" cy="132" r="17" fill="#38bdf8"/>
  <circle cx="669" cy="188" r="17" fill="#34d399"/>
  <circle cx="669" cy="244" r="17" fill="#a78bfa"/>
  <rect x="652" y="300" width="34" height="34" rx="8" fill="#f59e0b"/>
  <text x="86" y="420" fill="#67e8f9" font-family="Arial, sans-serif" font-size="13" letter-spacing="3">MVP 09 · VIDEO INTELLIGENCE</text>
</svg>
