<svg xmlns="http://www.w3.org/2000/svg" viewBox="0 0 800 450" role="img" aria-label="AIoT smart home console thumbnail">
  <defs>
    <linearGradient id="bg10" x1="0" y1="0" x2="1" y2="1">
      <stop offset="0" stop-color="#052e2b"/>
      <stop offset=".6" stop-color="#0f172a"/>
      <stop offset="1" stop-color="#365314"/>
    </linearGradient>
    <linearGradient id="home10" x1="0" y1="0" x2="1" y2="1">
      <stop offset="0" stop-color="#2dd4bf"/>
      <stop offset="1" stop-color="#a3e635"/>
    </linearGradient>
  </defs>
  <rect width="800" height="450" fill="url(#bg10)"/>
  <circle cx="118" cy="82" r="176" fill="#2dd4bf" opacity=".10"/>
  <circle cx="700" cy="372" r="180" fill="#a3e635" opacity=".10"/>
  <rect x="56" y="52" width="688" height="346" rx="24" fill="#07131f" opacity=".78" stroke="#5eead4" stroke-opacity=".22"/>
  <rect x="92" y="86" width="392" height="274" rx="22" fill="#0f172a" stroke="#334155"/>
  <path d="M142 242V138h116v80h86v-80h90v204H142z" fill="#111827" stroke="#64748b" stroke-width="4"/>
  <path d="M142 242h292M258 138v204M344 138v204" stroke="#334155" stroke-width="4"/>
  <circle cx="198" cy="190" r="18" fill="url(#home10)"/>
  <circle cx="301" cy="272" r="18" fill="#60a5fa"/>
  <circle cx="392" cy="201" r="18" fill="#fbbf24"/>
  <path d="M198 190c55 38 89 65 103 82M301 272c40-24 70-48 91-71" fill="none" stroke="#5eead4" stroke-width="4" stroke-dasharray="7 10" opacity=".72"/>
  <rect x="522" y="86" width="180" height="274" rx="22" fill="#0f172a" stroke="#334155"/>
  <text x="548" y="124" fill="#cbd5e1" font-family="Arial, sans-serif" font-size="20" font-weight="700">Scene Hub</text>
  <rect x="548" y="154" width="126" height="36" rx="18" fill="#134e4a"/>
  <rect x="548" y="210" width="96" height="36" rx="18" fill="#1e3a8a"/>
  <rect x="548" y="266" width="134" height="36" rx="18" fill="#3f3f46"/>
  <text x="86" y="420" fill="#99f6e4" font-family="Arial, sans-serif" font-size="13" letter-spacing="3">MVP 10 · SMART HOME AIOT</text>
</svg>
