<svg xmlns="http://www.w3.org/2000/svg" viewBox="0 0 800 450" role="img" aria-label="Knowledge graph platform thumbnail">
  <defs>
    <linearGradient id="bg11" x1="0" y1="0" x2="1" y2="1">
      <stop offset="0" stop-color="#111827"/>
      <stop offset=".52" stop-color="#2e1065"/>
      <stop offset="1" stop-color="#064e3b"/>
    </linearGradient>
    <linearGradient id="node11" x1="0" y1="0" x2="1" y2="1">
      <stop offset="0" stop-color="#8b5cf6"/>
      <stop offset="1" stop-color="#14b8a6"/>
    </linearGradient>
  </defs>
  <rect width="800" height="450" fill="url(#bg11)"/>
  <rect x="56" y="52" width="688" height="346" rx="24" fill="#0f1024" opacity=".76" stroke="#a78bfa" stroke-opacity=".24"/>
  <g stroke="#64748b" stroke-width="3" opacity=".7">
    <path d="M188 166L318 112L480 150L612 102"/>
    <path d="M188 166L276 266L444 282L612 102"/>
    <path d="M318 112L444 282L608 312"/>
    <path d="M480 150L608 312L276 266"/>
  </g>
  <g fill="url(#node11)">
    <circle cx="188" cy="166" r="34"/>
    <circle cx="318" cy="112" r="44"/>
    <circle cx="480" cy="150" r="36"/>
    <circle cx="612" cy="102" r="30"/>
    <circle cx="276" cy="266" r="39"/>
    <circle cx="444" cy="282" r="46"/>
    <circle cx="608" cy="312" r="36"/>
  </g>
  <g fill="#f8fafc" font-family="Arial, sans-serif" font-weight="700" text-anchor="middle">
    <text x="318" y="119" font-size="18">CORE</text>
    <text x="444" y="289" font-size="18">PATH</text>
  </g>
  <rect x="88" y="334" width="146" height="28" rx="14" fill="#312e81"/>
  <rect x="250" y="334" width="116" height="28" rx="14" fill="#115e59"/>
  <rect x="382" y="334" width="150" height="28" rx="14" fill="#3730a3"/>
  <text x="86" y="420" fill="#c4b5fd" font-family="Arial, sans-serif" font-size="13" letter-spacing="3">MVP 11 · KNOWLEDGE GRAPH</text>
</svg>
